<mxfile host="app.diagrams.net" modified="2024-02-06T03:00:23.238Z" agent="Mozilla/5.0 (X11; Linux x86_64; rv:121.0) Gecko/20100101 Firefox/121.0" etag="HNWu0z2c4PTJDkaApwCM" version="22.1.21" type="device">
  <diagram name="Page-1" id="NrHL3v-dRATDqxbaZaOY">
    <mxGraphModel dx="986" dy="544" grid="1" gridSize="10" guides="1" tooltips="1" connect="1" arrows="1" fold="1" page="1" pageScale="1" pageWidth="850" pageHeight="1100" math="0" shadow="0">
      <root>
        <mxCell id="0" />
        <mxCell id="1" parent="0" />
        <mxCell id="9CXYU9XPuON2b9urjZTa-33" value="" style="rounded=0;whiteSpace=wrap;html=1;" parent="1" vertex="1">
          <mxGeometry x="460" y="60" width="170" height="170" as="geometry" />
        </mxCell>
        <mxCell id="Fj2LazFwKNqtYFk179Nd-1" value="Master Cylinder" style="rounded=0;whiteSpace=wrap;html=1;fillColor=#dae8fc;strokeColor=#6c8ebf;" parent="1" vertex="1">
          <mxGeometry x="200" y="40" width="120" height="60" as="geometry" />
        </mxCell>
        <mxCell id="Fj2LazFwKNqtYFk179Nd-2" value="" style="rounded=0;whiteSpace=wrap;html=1;fillColor=#ffe6cc;strokeColor=#d79b00;" parent="1" vertex="1">
          <mxGeometry x="220" y="100" width="20" height="30" as="geometry" />
        </mxCell>
        <mxCell id="Fj2LazFwKNqtYFk179Nd-3" value="" style="rounded=0;whiteSpace=wrap;html=1;fillColor=#ffe6cc;strokeColor=#d79b00;" parent="1" vertex="1">
          <mxGeometry x="280" y="100" width="20" height="30" as="geometry" />
        </mxCell>
        <mxCell id="Fj2LazFwKNqtYFk179Nd-5" value="" style="endArrow=none;html=1;rounded=0;" parent="1" edge="1">
          <mxGeometry width="50" height="50" relative="1" as="geometry">
            <mxPoint x="289.65999999999997" y="240" as="sourcePoint" />
            <mxPoint x="289.65999999999997" y="130" as="targetPoint" />
          </mxGeometry>
        </mxCell>
        <mxCell id="Fj2LazFwKNqtYFk179Nd-9" value=" 11x1.5 bubble" style="text;html=1;strokeColor=none;fillColor=none;align=center;verticalAlign=middle;whiteSpace=wrap;rounded=0;" parent="1" vertex="1">
          <mxGeometry x="314" y="110" width="86" height="10" as="geometry" />
        </mxCell>
        <mxCell id="Fj2LazFwKNqtYFk179Nd-16" value="PV (Wilwood 260-12627)" style="rounded=0;whiteSpace=wrap;html=1;fillColor=#dae8fc;strokeColor=#6c8ebf;" parent="1" vertex="1">
          <mxGeometry x="270" y="270" width="120" height="60" as="geometry" />
        </mxCell>
        <mxCell id="Fj2LazFwKNqtYFk179Nd-17" value="" style="rounded=0;whiteSpace=wrap;html=1;fillColor=#dae8fc;strokeColor=#6c8ebf;fillStyle=auto;gradientDirection=east;" parent="1" vertex="1">
          <mxGeometry x="280" y="240" width="20" height="30" as="geometry" />
        </mxCell>
        <mxCell id="Fj2LazFwKNqtYFk179Nd-18" value="" style="rounded=0;whiteSpace=wrap;html=1;fillColor=#dae8fc;strokeColor=#6c8ebf;" parent="1" vertex="1">
          <mxGeometry x="220" y="330" width="20" height="30" as="geometry" />
        </mxCell>
        <mxCell id="Fj2LazFwKNqtYFk179Nd-21" value="" style="rounded=0;whiteSpace=wrap;html=1;fillColor=#dae8fc;strokeColor=#6c8ebf;" parent="1" vertex="1">
          <mxGeometry x="300" y="330" width="20" height="30" as="geometry" />
        </mxCell>
        <mxCell id="Fj2LazFwKNqtYFk179Nd-22" value="" style="rounded=0;whiteSpace=wrap;html=1;fillColor=#dae8fc;strokeColor=#6c8ebf;" parent="1" vertex="1">
          <mxGeometry x="220" y="390" width="20" height="30" as="geometry" />
        </mxCell>
        <mxCell id="Fj2LazFwKNqtYFk179Nd-23" value="" style="rounded=0;whiteSpace=wrap;html=1;fillColor=#dae8fc;strokeColor=#6c8ebf;" parent="1" vertex="1">
          <mxGeometry x="190" y="390" width="20" height="30" as="geometry" />
        </mxCell>
        <mxCell id="Fj2LazFwKNqtYFk179Nd-26" value="" style="endArrow=none;html=1;rounded=0;exitX=0.5;exitY=0;exitDx=0;exitDy=0;" parent="1" source="Fj2LazFwKNqtYFk179Nd-72" edge="1">
          <mxGeometry width="50" height="50" relative="1" as="geometry">
            <mxPoint x="310" y="430" as="sourcePoint" />
            <mxPoint x="309.83" y="360" as="targetPoint" />
          </mxGeometry>
        </mxCell>
        <mxCell id="Fj2LazFwKNqtYFk179Nd-29" value="" style="endArrow=none;html=1;rounded=0;exitX=0.5;exitY=0;exitDx=0;exitDy=0;" parent="1" source="9CXYU9XPuON2b9urjZTa-40" edge="1">
          <mxGeometry width="50" height="50" relative="1" as="geometry">
            <mxPoint x="230" y="470" as="sourcePoint" />
            <mxPoint x="230" y="420" as="targetPoint" />
          </mxGeometry>
        </mxCell>
        <mxCell id="Fj2LazFwKNqtYFk179Nd-30" value="" style="endArrow=none;html=1;rounded=0;exitX=0.5;exitY=0;exitDx=0;exitDy=0;" parent="1" source="9CXYU9XPuON2b9urjZTa-36" edge="1">
          <mxGeometry width="50" height="50" relative="1" as="geometry">
            <mxPoint x="200" y="500" as="sourcePoint" />
            <mxPoint x="199.82999999999998" y="420" as="targetPoint" />
          </mxGeometry>
        </mxCell>
        <mxCell id="Fj2LazFwKNqtYFk179Nd-38" value="" style="curved=1;endArrow=none;html=1;rounded=0;endFill=0;entryX=0.5;entryY=1;entryDx=0;entryDy=0;fillColor=#ffe6cc;strokeColor=#d79b00;" parent="1" edge="1">
          <mxGeometry width="50" height="50" relative="1" as="geometry">
            <mxPoint x="180" y="650" as="sourcePoint" />
            <mxPoint x="200" y="560" as="targetPoint" />
            <Array as="points">
              <mxPoint x="190" y="630" />
              <mxPoint x="200" y="600" />
            </Array>
          </mxGeometry>
        </mxCell>
        <mxCell id="Fj2LazFwKNqtYFk179Nd-40" value="3/8-24 to AN-3" style="text;html=1;strokeColor=none;fillColor=none;align=center;verticalAlign=middle;whiteSpace=wrap;rounded=0;" parent="1" vertex="1">
          <mxGeometry x="90" y="545" width="90" height="10" as="geometry" />
        </mxCell>
        <mxCell id="Fj2LazFwKNqtYFk179Nd-41" value="" style="curved=1;endArrow=none;html=1;rounded=0;endFill=0;entryX=0.5;entryY=1;entryDx=0;entryDy=0;fillColor=#ffe6cc;strokeColor=#d79b00;" parent="1" target="9CXYU9XPuON2b9urjZTa-41" edge="1">
          <mxGeometry width="50" height="50" relative="1" as="geometry">
            <mxPoint x="210" y="650" as="sourcePoint" />
            <mxPoint x="230" y="560" as="targetPoint" />
            <Array as="points">
              <mxPoint x="220" y="630" />
              <mxPoint x="250" y="600" />
            </Array>
          </mxGeometry>
        </mxCell>
        <mxCell id="Fj2LazFwKNqtYFk179Nd-43" value="AN-3 softies" style="text;html=1;strokeColor=none;fillColor=none;align=center;verticalAlign=middle;whiteSpace=wrap;rounded=0;" parent="1" vertex="1">
          <mxGeometry x="70" y="600" width="70" height="10" as="geometry" />
        </mxCell>
        <mxCell id="Fj2LazFwKNqtYFk179Nd-45" value="" style="rounded=0;whiteSpace=wrap;html=1;fillColor=#ffe6cc;strokeColor=#d79b00;" parent="1" vertex="1">
          <mxGeometry x="170" y="650" width="20" height="30" as="geometry" />
        </mxCell>
        <mxCell id="Fj2LazFwKNqtYFk179Nd-46" value="" style="rounded=0;whiteSpace=wrap;html=1;fillColor=#ffe6cc;strokeColor=#d79b00;" parent="1" vertex="1">
          <mxGeometry x="200" y="650" width="20" height="30" as="geometry" />
        </mxCell>
        <mxCell id="Fj2LazFwKNqtYFk179Nd-51" value="T (AN-4)" style="rounded=0;whiteSpace=wrap;html=1;fillColor=#d5e8d4;strokeColor=#82b366;" parent="1" vertex="1">
          <mxGeometry x="300" y="540" width="50" height="30" as="geometry" />
        </mxCell>
        <mxCell id="Fj2LazFwKNqtYFk179Nd-61" value="" style="curved=1;endArrow=none;html=1;rounded=0;endFill=0;entryX=0.5;entryY=1;entryDx=0;entryDy=0;fillColor=#d5e8d4;strokeColor=#82b366;" parent="1" edge="1">
          <mxGeometry width="50" height="50" relative="1" as="geometry">
            <mxPoint x="287.5" y="660" as="sourcePoint" />
            <mxPoint x="307.5" y="570" as="targetPoint" />
            <Array as="points">
              <mxPoint x="297.5" y="640" />
              <mxPoint x="307.5" y="610" />
            </Array>
          </mxGeometry>
        </mxCell>
        <mxCell id="Fj2LazFwKNqtYFk179Nd-64" value="" style="curved=1;endArrow=none;html=1;rounded=0;endFill=0;entryX=0.5;entryY=1;entryDx=0;entryDy=0;fillColor=#d5e8d4;strokeColor=#82b366;" parent="1" edge="1">
          <mxGeometry width="50" height="50" relative="1" as="geometry">
            <mxPoint x="317.5" y="660" as="sourcePoint" />
            <mxPoint x="337.5" y="570" as="targetPoint" />
            <Array as="points">
              <mxPoint x="327.5" y="640" />
              <mxPoint x="337.5" y="610" />
            </Array>
          </mxGeometry>
        </mxCell>
        <mxCell id="Fj2LazFwKNqtYFk179Nd-66" value="AN-4 softies" style="text;html=1;strokeColor=none;fillColor=none;align=center;verticalAlign=middle;whiteSpace=wrap;rounded=0;" parent="1" vertex="1">
          <mxGeometry x="347.5" y="620" width="70" height="10" as="geometry" />
        </mxCell>
        <mxCell id="Fj2LazFwKNqtYFk179Nd-72" value="" style="rounded=0;whiteSpace=wrap;html=1;fillColor=#dae8fc;strokeColor=#6c8ebf;" parent="1" vertex="1">
          <mxGeometry x="300" y="440" width="20" height="20" as="geometry" />
        </mxCell>
        <mxCell id="Fj2LazFwKNqtYFk179Nd-77" value="3/8-24 IF" style="text;html=1;strokeColor=none;fillColor=none;align=center;verticalAlign=middle;whiteSpace=wrap;rounded=0;" parent="1" vertex="1">
          <mxGeometry x="322.5" y="440" width="90" height="10" as="geometry" />
        </mxCell>
        <mxCell id="9CXYU9XPuON2b9urjZTa-2" value=" 12x1 bubble" style="text;html=1;strokeColor=none;fillColor=none;align=center;verticalAlign=middle;whiteSpace=wrap;rounded=0;" parent="1" vertex="1">
          <mxGeometry x="140" y="110" width="70" height="10" as="geometry" />
        </mxCell>
        <mxCell id="9CXYU9XPuON2b9urjZTa-3" value="T" style="rounded=0;whiteSpace=wrap;html=1;fillColor=#ffe6cc;strokeColor=#d79b00;" parent="1" vertex="1">
          <mxGeometry x="190" y="360" width="50" height="30" as="geometry" />
        </mxCell>
        <mxCell id="9CXYU9XPuON2b9urjZTa-4" value="" style="rounded=0;whiteSpace=wrap;html=1;fillColor=#dae8fc;strokeColor=#6c8ebf;" parent="1" vertex="1">
          <mxGeometry x="390" y="295" width="40" height="10" as="geometry" />
        </mxCell>
        <mxCell id="9CXYU9XPuON2b9urjZTa-5" value="" style="ellipse;whiteSpace=wrap;html=1;fillColor=#dae8fc;strokeColor=#6c8ebf;" parent="1" vertex="1">
          <mxGeometry x="415" y="260" width="20" height="80" as="geometry" />
        </mxCell>
        <mxCell id="9CXYU9XPuON2b9urjZTa-6" value="Reuse, or 10x1 bubble" style="text;html=1;strokeColor=none;fillColor=none;align=center;verticalAlign=middle;whiteSpace=wrap;rounded=0;" parent="1" vertex="1">
          <mxGeometry x="310" y="240" width="140" height="10" as="geometry" />
        </mxCell>
        <mxCell id="9CXYU9XPuON2b9urjZTa-7" value="Reuse, or 10x1 bubble" style="text;html=1;strokeColor=none;fillColor=none;align=center;verticalAlign=middle;whiteSpace=wrap;rounded=0;" parent="1" vertex="1">
          <mxGeometry x="330" y="340" width="140" height="10" as="geometry" />
        </mxCell>
        <mxCell id="9CXYU9XPuON2b9urjZTa-8" value="3/8-24 IF" style="text;html=1;strokeColor=none;fillColor=none;align=center;verticalAlign=middle;whiteSpace=wrap;rounded=0;" parent="1" vertex="1">
          <mxGeometry x="120" y="340" width="90" height="10" as="geometry" />
        </mxCell>
        <mxCell id="9CXYU9XPuON2b9urjZTa-9" value="3/8-24 IF" style="text;html=1;strokeColor=none;fillColor=none;align=center;verticalAlign=middle;whiteSpace=wrap;rounded=0;" parent="1" vertex="1">
          <mxGeometry x="110" y="400" width="90" height="10" as="geometry" />
        </mxCell>
        <mxCell id="9CXYU9XPuON2b9urjZTa-10" value="" style="endArrow=none;html=1;rounded=0;" parent="1" edge="1">
          <mxGeometry width="50" height="50" relative="1" as="geometry">
            <mxPoint x="230" y="170" as="sourcePoint" />
            <mxPoint x="229.70999999999998" y="130" as="targetPoint" />
          </mxGeometry>
        </mxCell>
        <mxCell id="9CXYU9XPuON2b9urjZTa-11" value="LL" style="rounded=0;whiteSpace=wrap;html=1;fillColor=#dae8fc;strokeColor=#6c8ebf;" parent="1" vertex="1">
          <mxGeometry x="180" y="200" width="70" height="40" as="geometry" />
        </mxCell>
        <mxCell id="9CXYU9XPuON2b9urjZTa-12" value="" style="rounded=0;whiteSpace=wrap;html=1;fillColor=#dae8fc;strokeColor=#6c8ebf;" parent="1" vertex="1">
          <mxGeometry x="220" y="170" width="20" height="30" as="geometry" />
        </mxCell>
        <mxCell id="9CXYU9XPuON2b9urjZTa-14" value="3/8-24 IF ?? (reuse)" style="text;html=1;strokeColor=none;fillColor=none;align=center;verticalAlign=middle;whiteSpace=wrap;rounded=0;" parent="1" vertex="1">
          <mxGeometry x="90" y="180" width="120" height="10" as="geometry" />
        </mxCell>
        <mxCell id="9CXYU9XPuON2b9urjZTa-15" value="" style="rounded=0;whiteSpace=wrap;html=1;fillColor=#dae8fc;strokeColor=#6c8ebf;" parent="1" vertex="1">
          <mxGeometry x="220" y="240" width="20" height="30" as="geometry" />
        </mxCell>
        <mxCell id="9CXYU9XPuON2b9urjZTa-16" value="3/8-24 IF ?? (reuse)" style="text;html=1;strokeColor=none;fillColor=none;align=center;verticalAlign=middle;whiteSpace=wrap;rounded=0;" parent="1" vertex="1">
          <mxGeometry x="90" y="250" width="120" height="10" as="geometry" />
        </mxCell>
        <mxCell id="9CXYU9XPuON2b9urjZTa-17" value="" style="endArrow=none;html=1;rounded=0;exitX=0.5;exitY=0;exitDx=0;exitDy=0;" parent="1" source="Fj2LazFwKNqtYFk179Nd-18" edge="1">
          <mxGeometry width="50" height="50" relative="1" as="geometry">
            <mxPoint x="230" y="310" as="sourcePoint" />
            <mxPoint x="229.70999999999998" y="270" as="targetPoint" />
          </mxGeometry>
        </mxCell>
        <mxCell id="9CXYU9XPuON2b9urjZTa-18" value="AN-3 to 1/8-27 NPT" style="text;html=1;strokeColor=none;fillColor=none;align=center;verticalAlign=middle;whiteSpace=wrap;rounded=0;" parent="1" vertex="1">
          <mxGeometry x="50" y="660" width="110" height="10" as="geometry" />
        </mxCell>
        <mxCell id="9CXYU9XPuON2b9urjZTa-20" value="3/8-24 to AN-4" style="text;html=1;align=center;verticalAlign=middle;whiteSpace=wrap;rounded=0;" parent="1" vertex="1">
          <mxGeometry x="332.5" y="475" width="90" height="10" as="geometry" />
        </mxCell>
        <mxCell id="9CXYU9XPuON2b9urjZTa-21" value="" style="rounded=0;whiteSpace=wrap;html=1;fillColor=#d5e8d4;strokeColor=#82b366;" parent="1" vertex="1">
          <mxGeometry x="302.5" y="470" width="20" height="20" as="geometry" />
        </mxCell>
        <mxCell id="9CXYU9XPuON2b9urjZTa-22" value="AN-4 softy" style="text;html=1;align=center;verticalAlign=middle;whiteSpace=wrap;rounded=0;" parent="1" vertex="1">
          <mxGeometry x="324.5" y="510" width="70" height="10" as="geometry" />
        </mxCell>
        <mxCell id="9CXYU9XPuON2b9urjZTa-23" value="" style="curved=1;endArrow=none;html=1;rounded=0;endFill=0;entryX=0.5;entryY=1;entryDx=0;entryDy=0;fillColor=#d5e8d4;strokeColor=#82b366;" parent="1" edge="1">
          <mxGeometry width="50" height="50" relative="1" as="geometry">
            <mxPoint x="312.5" y="540" as="sourcePoint" />
            <mxPoint x="312.5" y="490" as="targetPoint" />
            <Array as="points">
              <mxPoint x="312.5" y="520" />
              <mxPoint x="322.5" y="510" />
            </Array>
          </mxGeometry>
        </mxCell>
        <mxCell id="9CXYU9XPuON2b9urjZTa-26" value="AN-4 to 1/8-27 NPT" style="text;html=1;strokeColor=none;fillColor=none;align=center;verticalAlign=middle;whiteSpace=wrap;rounded=0;" parent="1" vertex="1">
          <mxGeometry x="350" y="670" width="110" height="10" as="geometry" />
        </mxCell>
        <mxCell id="9CXYU9XPuON2b9urjZTa-27" value="" style="rounded=0;whiteSpace=wrap;html=1;fillColor=#d5e8d4;strokeColor=#82b366;" parent="1" vertex="1">
          <mxGeometry x="280" y="660" width="20" height="30" as="geometry" />
        </mxCell>
        <mxCell id="9CXYU9XPuON2b9urjZTa-28" value="" style="rounded=0;whiteSpace=wrap;html=1;fillColor=#d5e8d4;strokeColor=#82b366;" parent="1" vertex="1">
          <mxGeometry x="310" y="660" width="20" height="30" as="geometry" />
        </mxCell>
        <mxCell id="9CXYU9XPuON2b9urjZTa-29" value="Have: stock, hand-me-down, or gift" style="rounded=0;whiteSpace=wrap;html=1;fillColor=#dae8fc;strokeColor=#6c8ebf;" parent="1" vertex="1">
          <mxGeometry x="480" y="120" width="130" height="30" as="geometry" />
        </mxCell>
        <mxCell id="9CXYU9XPuON2b9urjZTa-30" value="Have: rear end bundle" style="rounded=0;whiteSpace=wrap;html=1;fillColor=#d5e8d4;strokeColor=#82b366;" parent="1" vertex="1">
          <mxGeometry x="480" y="155" width="130" height="30" as="geometry" />
        </mxCell>
        <mxCell id="9CXYU9XPuON2b9urjZTa-31" value="LEGEND" style="shape=process;whiteSpace=wrap;html=1;backgroundOutline=1;" parent="1" vertex="1">
          <mxGeometry x="460" y="60" width="170" height="40" as="geometry" />
        </mxCell>
        <mxCell id="9CXYU9XPuON2b9urjZTa-34" value="Mount/Clip" style="rounded=0;whiteSpace=wrap;html=1;fontSize=9;align=center;verticalAlign=middle;fillColor=#ffe6cc;strokeColor=#d79b00;" parent="1" vertex="1">
          <mxGeometry x="280" y="460" width="60" height="10" as="geometry" />
        </mxCell>
        <mxCell id="9CXYU9XPuON2b9urjZTa-36" value="" style="rounded=0;whiteSpace=wrap;html=1;fillColor=#dae8fc;strokeColor=#6c8ebf;" parent="1" vertex="1">
          <mxGeometry x="190" y="510" width="20" height="20" as="geometry" />
        </mxCell>
        <mxCell id="9CXYU9XPuON2b9urjZTa-37" value="" style="rounded=0;whiteSpace=wrap;html=1;fillColor=#ffe6cc;strokeColor=#d79b00;" parent="1" vertex="1">
          <mxGeometry x="190" y="540" width="20" height="20" as="geometry" />
        </mxCell>
        <mxCell id="9CXYU9XPuON2b9urjZTa-38" value="Mount/Clip" style="rounded=0;whiteSpace=wrap;html=1;fontSize=9;align=center;verticalAlign=middle;fillColor=#ffe6cc;strokeColor=#d79b00;" parent="1" vertex="1">
          <mxGeometry x="170" y="530" width="60" height="10" as="geometry" />
        </mxCell>
        <mxCell id="9CXYU9XPuON2b9urjZTa-39" value="3/8-24 IF" style="text;html=1;strokeColor=none;fillColor=none;align=center;verticalAlign=middle;whiteSpace=wrap;rounded=0;" parent="1" vertex="1">
          <mxGeometry x="100" y="515" width="90" height="10" as="geometry" />
        </mxCell>
        <mxCell id="9CXYU9XPuON2b9urjZTa-40" value="" style="rounded=0;whiteSpace=wrap;html=1;fillColor=#dae8fc;strokeColor=#6c8ebf;" parent="1" vertex="1">
          <mxGeometry x="240" y="495" width="20" height="20" as="geometry" />
        </mxCell>
        <mxCell id="9CXYU9XPuON2b9urjZTa-41" value="" style="rounded=0;whiteSpace=wrap;html=1;fillColor=#ffe6cc;strokeColor=#d79b00;" parent="1" vertex="1">
          <mxGeometry x="240" y="525" width="20" height="20" as="geometry" />
        </mxCell>
        <mxCell id="9CXYU9XPuON2b9urjZTa-42" value="Mount/Clip" style="rounded=0;whiteSpace=wrap;html=1;fontSize=9;align=center;verticalAlign=middle;fillColor=#ffe6cc;strokeColor=#d79b00;" parent="1" vertex="1">
          <mxGeometry x="220" y="515" width="60" height="10" as="geometry" />
        </mxCell>
        <mxCell id="9CXYU9XPuON2b9urjZTa-43" value="Need: Amazon" style="rounded=0;whiteSpace=wrap;html=1;fillColor=#ffe6cc;strokeColor=#d79b00;" parent="1" vertex="1">
          <mxGeometry x="480" y="190" width="130" height="30" as="geometry" />
        </mxCell>
      </root>
    </mxGraphModel>
  </diagram>
</mxfile>
